<svg xmlns="http://www.w3.org/2000/svg" fill="none" viewBox="0 0 1080 1080" height="1080" width="1080">
<rect fill="white" height="1080" width="1080"></rect>
<mask fill="white" id="path-1-inside-1_1072_5994">
<path d="M569.696 886.163C592.17 886.163 612.229 867.401 625.375 838.039C638.52 867.401 658.579 886.163 681.053 886.163C703.526 886.163 723.584 867.404 736.73 838.045C749.875 867.404 769.933 886.163 792.406 886.163C832.003 886.163 864.102 827.924 864.102 756.082C864.102 684.24 832.003 626 792.406 626C769.933 626 749.875 644.76 736.73 674.118C723.584 644.76 703.526 626 681.053 626C658.579 626 638.52 644.762 625.375 674.124C612.229 644.762 592.17 626 569.696 626C530.099 626 498 684.24 498 756.082C498 827.924 530.099 886.163 569.696 886.163Z" clip-rule="evenodd" fill-rule="evenodd"></path>
</mask>
<path fill="#C7B9FF" d="M569.696 886.163C592.17 886.163 612.229 867.401 625.375 838.039C638.52 867.401 658.579 886.163 681.053 886.163C703.526 886.163 723.584 867.404 736.73 838.045C749.875 867.404 769.933 886.163 792.406 886.163C832.003 886.163 864.102 827.924 864.102 756.082C864.102 684.24 832.003 626 792.406 626C769.933 626 749.875 644.76 736.73 674.118C723.584 644.76 703.526 626 681.053 626C658.579 626 638.52 644.762 625.375 674.124C612.229 644.762 592.17 626 569.696 626C530.099 626 498 684.24 498 756.082C498 827.924 530.099 886.163 569.696 886.163Z" clip-rule="evenodd" fill-rule="evenodd"></path>
<path mask="url(#path-1-inside-1_1072_5994)" fill="black" d="M625.375 838.039L629.025 836.405C628.381 834.965 626.951 834.039 625.375 834.039C623.798 834.039 622.368 834.965 621.724 836.405L625.375 838.039ZM736.73 838.045L740.38 836.41C739.736 834.971 738.306 834.045 736.73 834.045C735.153 834.045 733.723 834.971 733.079 836.41L736.73 838.045ZM736.73 674.118L733.079 675.753C733.723 677.192 735.153 678.118 736.73 678.118C738.306 678.118 739.736 677.192 740.38 675.753L736.73 674.118ZM625.375 674.124L621.724 675.759C622.368 677.198 623.798 678.124 625.375 678.124C626.951 678.124 628.381 677.198 629.025 675.759L625.375 674.124ZM621.724 836.405C608.794 865.284 589.761 882.163 569.696 882.163V890.163C594.579 890.163 615.664 869.518 629.025 839.674L621.724 836.405ZM681.053 882.163C660.988 882.163 641.955 865.284 629.025 836.405L621.724 839.674C635.085 869.518 656.17 890.163 681.053 890.163V882.163ZM733.079 836.41C720.15 865.286 701.117 882.163 681.053 882.163V890.163C705.935 890.163 727.019 869.521 740.38 839.679L733.079 836.41ZM792.406 882.163C772.342 882.163 753.31 865.286 740.38 836.41L733.079 839.679C746.441 869.521 767.524 890.163 792.406 890.163V882.163ZM860.102 756.082C860.102 791.459 852.19 823.289 839.599 846.132C826.931 869.118 810.076 882.163 792.406 882.163V890.163C814.333 890.163 833.326 874.089 846.606 849.994C859.964 825.757 868.102 792.547 868.102 756.082H860.102ZM792.406 630C810.076 630 826.931 643.045 839.599 666.031C852.19 688.874 860.102 720.704 860.102 756.082H868.102C868.102 719.617 859.964 686.406 846.606 662.169C833.326 638.075 814.333 622 792.406 622V630ZM740.38 675.753C753.31 646.877 772.342 630 792.406 630V622C767.524 622 746.441 642.642 733.079 672.484L740.38 675.753ZM681.053 630C701.117 630 720.15 646.877 733.079 675.753L740.38 672.484C727.019 642.642 705.935 622 681.053 622V630ZM629.025 675.759C641.955 646.879 660.988 630 681.053 630V622C656.17 622 635.085 642.645 621.724 672.49L629.025 675.759ZM569.696 630C589.761 630 608.794 646.879 621.724 675.759L629.025 672.49C615.664 642.645 594.579 622 569.696 622V630ZM502 756.082C502 720.704 509.912 688.874 522.502 666.031C535.171 643.045 552.026 630 569.696 630V622C547.769 622 528.776 638.075 515.496 662.169C502.138 686.406 494 719.617 494 756.082H502ZM569.696 882.163C552.026 882.163 535.171 869.118 522.502 846.132C509.912 823.289 502 791.459 502 756.082H494C494 792.547 502.138 825.757 515.496 849.994C528.776 874.089 547.769 890.163 569.696 890.163V882.163Z"></path>
<path stroke-width="4" stroke="black" fill="#5551FF" d="M783.97 261.363L838.42 284.057C838.72 284.182 838.957 284.42 839.081 284.72L861.646 339.534C861.768 339.833 861.768 340.167 861.646 340.466L839.081 395.28C838.957 395.58 838.72 395.818 838.42 395.943L783.97 418.637C783.669 418.763 783.331 418.763 783.03 418.637L728.58 395.943C728.28 395.818 728.043 395.58 727.919 395.28L705.354 340.466C705.232 340.167 705.232 339.833 705.354 339.534L727.919 284.72C728.043 284.42 728.28 284.182 728.58 284.057L783.03 261.363C783.331 261.237 783.669 261.237 783.97 261.363Z"></path>
<rect stroke-linejoin="bevel" stroke-width="4" stroke="black" fill="#FF8577" height="186" width="186" y="688" x="232"></rect>
<path fill="black" d="M235.101 101.601L215.765 120.938L196.164 101.601L215.765 82L235.101 101.601ZM260 126.5L240.664 146.101L221.327 126.5L240.664 107.164L260 126.5ZM210.202 126.5L190.601 146.101L171 126.5L190.601 107.164L210.202 126.5ZM235.101 151.664L215.765 171L196.164 151.664L215.765 132.063L235.101 151.664Z"></path>
<rect stroke-dasharray="30 10" stroke-width="4" stroke="black" rx="40" height="728" width="738" y="210" x="171"></rect>
<path stroke-width="4" stroke="black" fill="#FFC700" d="M215 575L540 575L480.723 479.063L540 421.5L480.723 363.938L540 268L215 268L276.321 363.937L215 421.5L276.321 479.062L215 575Z"></path>
<mask fill="black" height="105" width="181" y="702" x="788.999" maskUnits="userSpaceOnUse" id="path-8-outside-2_1072_5994">
<rect height="105" width="181" y="702" x="788.999" fill="white"></rect>
<path d="M965.499 802.583L827.526 802.583L827.526 752.278L965.499 752.278L965.499 802.583Z"></path>
<path d="M801.948 746.331L794.999 710L825.574 728.166L810.287 732.358L801.948 746.331Z"></path>
</mask>
<path fill="#5551FF" d="M965.499 802.583L827.526 802.583L827.526 752.278L965.499 752.278L965.499 802.583Z"></path>
<path fill="#5551FF" d="M801.948 746.331L794.999 710L825.574 728.166L810.287 732.358L801.948 746.331Z"></path>
<path mask="url(#path-8-outside-2_1072_5994)" fill="black" d="M965.499 802.583L965.499 806.583L969.499 806.583L969.499 802.583L965.499 802.583ZM827.526 802.583L823.526 802.583L823.526 806.583L827.526 806.583L827.526 802.583ZM827.526 752.278L827.526 748.278L823.526 748.278L823.526 752.278L827.526 752.278ZM965.499 752.278L969.499 752.278L969.499 748.278L965.499 748.278L965.499 752.278ZM794.999 710L797.042 706.561L789.4 702.021L791.07 710.751L794.999 710ZM801.948 746.331L798.019 747.083L799.994 757.411L805.383 748.381L801.948 746.331ZM810.287 732.358L809.229 728.5L807.677 728.926L806.852 730.308L810.287 732.358ZM825.574 728.166L826.632 732.023L835.709 729.534L827.617 724.727L825.574 728.166ZM965.499 798.583L827.526 798.583L827.526 806.583L965.499 806.583L965.499 798.583ZM831.526 802.583L831.526 752.278L823.526 752.278L823.526 802.583L831.526 802.583ZM827.526 756.278L965.499 756.278L965.499 748.278L827.526 748.278L827.526 756.278ZM961.499 752.278L961.499 802.583L969.499 802.583L969.499 752.278L961.499 752.278ZM791.07 710.751L798.019 747.083L805.877 745.58L798.928 709.248L791.07 710.751ZM805.383 748.381L813.722 734.407L806.852 730.308L798.513 744.282L805.383 748.381ZM811.344 736.215L826.632 732.023L824.516 724.308L809.229 728.5L811.344 736.215ZM827.617 724.727L797.042 706.561L792.956 713.439L823.531 731.604L827.617 724.727Z"></path>
<mask fill="black" height="105" width="181" y="460.584" x="591.5" maskUnits="userSpaceOnUse" id="path-10-outside-3_1072_5994">
<rect height="105" width="181" y="460.584" x="591.5" fill="white"></rect>
<path d="M596 465L733.973 465L733.973 515.306L596 515.306L596 465Z"></path>
<path d="M759.551 521.252L766.5 557.584L735.925 539.418L751.213 535.226L759.551 521.252Z"></path>
</mask>
<path fill="white" d="M596 465L733.973 465L733.973 515.306L596 515.306L596 465Z"></path>
<path fill="white" d="M759.551 521.252L766.5 557.584L735.925 539.418L751.213 535.226L759.551 521.252Z"></path>
<path mask="url(#path-10-outside-3_1072_5994)" fill="black" d="M596 465L596 461L592 461L592 465L596 465ZM733.973 465L737.973 465L737.973 461L733.973 461L733.973 465ZM733.973 515.306L733.973 519.306L737.973 519.306L737.973 515.306L733.973 515.306ZM596 515.306L592 515.306L592 519.306L596 519.306L596 515.306ZM766.5 557.584L764.457 561.023L772.099 565.563L770.429 556.832L766.5 557.584ZM759.551 521.252L763.48 520.501L761.505 510.173L756.116 519.202L759.551 521.252ZM751.213 535.226L752.27 539.083L753.823 538.658L754.647 537.276L751.213 535.226ZM735.925 539.418L734.867 535.56L725.79 538.049L733.882 542.857L735.925 539.418ZM596 469L733.973 469L733.973 461L596 461L596 469ZM729.973 465L729.973 515.306L737.973 515.306L737.973 465L729.973 465ZM733.973 511.306L596 511.306L596 519.306L733.973 519.306L733.973 511.306ZM600 515.306L600 465L592 465L592 515.306L600 515.306ZM770.429 556.832L763.48 520.501L755.623 522.003L762.571 558.335L770.429 556.832ZM756.116 519.202L747.778 533.176L754.647 537.276L762.986 523.302L756.116 519.202ZM750.155 531.368L734.867 535.56L736.983 543.275L752.27 539.083L750.155 531.368ZM733.882 542.857L764.457 561.023L768.543 554.145L737.968 535.979L733.882 542.857Z"></path>
</svg>
